<?xml version="1.0" encoding="utf-8"?>
<!-- Generator: Adobe Illustrator 27.1.1, SVG Export Plug-In . SVG Version: 6.00 Build 0)  -->
<svg version="1.1" id="Layer_1" xmlns="http://www.w3.org/2000/svg" xmlns:xlink="http://www.w3.org/1999/xlink" x="0px" y="0px"
	 viewBox="0 0 64 64" style="enable-background:new 0 0 64 64;" xml:space="preserve">
<style type="text/css">
	.st0{fill:none;stroke:#2B9AB3;stroke-width:1.25;stroke-miterlimit:10;}
</style>
<path class="st0" d="M6.9,18.2l25-12l25.1,12c0,0,0,0.6,0,2.5c0,1.9,0,2.1-2.6,2.1c-2.6,0-41.8,0-44.7,0c-2.9,0-2.9-0.1-2.9,2.9
	s-0.1,3.1,2.9,3.1c3,0,42.2,0,44.7,0S57,29,57,30.7s0,21.2,0,23.6c0,2.4,0.1,2.6-2.9,2.6s-2.9,0-2.9,0l-1.5-19.4
	c0,0,1.2-0.9,1.2-2.2s-1.2-2-1.2-2h-5.6c0,0-1.2,0.8-1.2,2c0,1.3,1.2,2.2,1.2,2.2L42.6,57c0,0,0.1,0-3.2,0c-3.2,0-3.2,0-3.2,0
	l-1.5-19.4c0,0,1.2-0.9,1.2-2.2c0-1.3-1.2-2-1.2-2h-5.6c0,0-1.2,0.8-1.2,2c0,1.3,1.2,2.2,1.2,2.2L27.6,57c0,0-0.1,0-3.1,0
	s-3.3,0-3.3,0l-1.5-19.4c0,0,1.2-0.9,1.2-2.2c0-1.3-1.2-2-1.2-2h-5.6c0,0-1.2,0.8-1.2,2c0,1.3,1.2,2.2,1.2,2.2L12.6,57
	c0,0-0.1,0-2.9,0c-2.9,0-2.8,0-2.8-3.4c0-3.4,0-20.9,0-20.9"/>
</svg>
