<svg width="64" height="64" viewBox="0 0 64 64" fill="none" xmlns="http://www.w3.org/2000/svg">
<path d="M30.9 9.9C30.2 9.9 21 9.2 13.4 16.8C9.9 20.2 6.5 26 6.5 33.4C6.5 44.5 15.2 57 30 57C36.9 57 42.6 54.2 46.7 50.1C54.2 42.6 53.6 33.4 53.6 33.4H30L13.2 50.2L30 33.4V14.4V29.6H33.8V6C33.8 6 35.4 6 37 6.2C38.6 6.4 40 6.8 40 6.8C40 6.8 38.5 6.4 37.1 6.2C35.5 6 33.9 6 33.9 6V29.6H57.5C57.5 29.6 58.1 20.4 50.6 12.9C47 9.3 43 7.7 40.2 6.9L33.9 13.3V19.9L44.9 8.7L33.9 19.8V26.3L48.6 11.6L33.9 26.3V29.5H37.2L52.3 14.4L37.2 29.6H43.7L55.1 18.2L43.7 29.6H50.3L56.6 23.3" stroke="#2B9AB3" stroke-width="1.6012" stroke-miterlimit="10"/>
</svg>
