<svg width="64" height="64" viewBox="0 0 64 64" fill="none" xmlns="http://www.w3.org/2000/svg">
<path d="M16.8 28.3C16.8 28.3 16.9 29.5 16.9 33.1C16.9 36.6 16.9 54.3 16.9 54.3H19.3C19.3 54.3 19.9 36.2 20.9 28.6C21.2 26.7 22.3 25.2 23.5 25.2C24.8 25.2 25.7 26.5 25.8 28.6C26.4 36.5 25.8 54.3 27.8 54.3C29.8 54.3 28.8 36.5 29.5 28.6C29.7 26.5 30.9 25.2 31.9 25.2C32.9 25.2 34.1 26.6 34.3 28.6C35.1 36.4 34.2 54.3 36.1 54.3C38.1 54.3 37.4 36.7 38 28.6C38.2 26.3 39.4 25.2 40.5 25.2C41.6 25.2 42.8 26.4 43.1 28.6C44 36.5 44.7 54.3 44.7 54.3H47.1C47.1 54.3 47.1 35.6 47.1 32C47.1 24.8 48.4 17.8 48.4 17.8H48.6C48.6 17.8 48.7 20 50.9 20C52.5 20 53.7 18.9 53.7 16.9C53.7 14.9 51.7 13.3 49.7 13.3C47.7 13.3 44.7 14.9 44.7 18.3C44.7 21.7 47.2 24.2 50.9 24.2C54.9 24.2 58 21.4 58 17.1C58 12.8 55.3 9.29999 48.6 9.29999C43.5 9.29999 37.1 9.29999 37.1 9.29999H26.9C26.9 9.29999 20.5 9.29999 15.4 9.29999C8.7 9.29999 6 12.7 6 17.1C6 21.4 9.1 24.2 13.1 24.2C16.8 24.2 19.3 21.7 19.3 18.3C19.3 14.9 16.4 13.3 14.3 13.3C12.3 13.3 10.3 14.9 10.3 16.9C10.3 18.9 11.5 20 13.1 20C15.4 20 15.4 17.8 15.4 17.8H41.1" stroke="#008259" stroke-width="1.25" stroke-miterlimit="10"/>
</svg>
